<svg width="24" height="24" viewBox="0 0 24 24" fill="none" xmlns="http://www.w3.org/2000/svg">
<path d="M2.5 18.5C2.5 20.43 4.07 22 6 22C7.93 22 9.5 20.43 9.5 18.5C9.5 16.92 8.44 15.597 7 15.163V11.675C7.244 11.948 7.509 12.202 7.813 12.419C8.993 13.263 10.43 13.517 11.731 13.517C12.697 13.517 13.584 13.377 14.237 13.236C14.4874 13.8999 14.9336 14.472 15.5165 14.8765C16.0994 15.281 16.7915 15.4988 17.501 15.501C19.431 15.501 21.001 13.931 21.001 12.001C21.001 10.071 19.431 8.501 17.501 8.501C16.71 8.5027 15.9428 8.77232 15.3246 9.26591C14.7065 9.7595 14.2737 10.4479 14.097 11.219C12.8 11.54 10.433 11.835 8.978 10.793C8.312 10.316 7.888 9.554 7.672 8.557C8.755 7.96 9.5 6.821 9.5 5.5C9.5 3.57 7.93 2 6 2C4.07 2 2.5 3.57 2.5 5.5C2.5 7.08 3.56 8.403 5 8.837V15.163C3.56 15.597 2.5 16.92 2.5 18.5ZM17.5 10.5C18.327 10.5 19 11.173 19 12C19 12.827 18.327 13.5 17.5 13.5C16.673 13.5 16 12.827 16 12C16 11.173 16.673 10.5 17.5 10.5ZM7.5 18.5C7.5 19.327 6.827 20 6 20C5.173 20 4.5 19.327 4.5 18.5C4.5 17.673 5.173 17 6 17C6.827 17 7.5 17.673 7.5 18.5ZM4.5 5.5C4.5 4.673 5.173 4 6 4C6.827 4 7.5 4.673 7.5 5.5C7.5 6.327 6.827 7 6 7C5.173 7 4.5 6.327 4.5 5.5Z" fill="#E36447"/>
</svg>
