<svg width="185" height="56" viewBox="0 0 185 56" fill="none" xmlns="http://www.w3.org/2000/svg">
<path d="M73.9101 13.6131H78.2265V37.0721H73.9101V35.4143C73.4304 36.0191 72.8362 36.5143 72.1272 36.9001C71.4182 37.2859 70.6102 37.4787 69.7031 37.4787C68.5666 37.4787 67.5031 37.265 66.5126 36.8375C65.5222 36.4101 64.6463 35.821 63.8852 35.0703C63.1345 34.3092 62.5455 33.4334 62.118 32.4429C61.6905 31.4524 61.4768 30.3889 61.4768 29.2524C61.4768 28.116 61.6905 27.0525 62.118 26.062C62.5455 25.0715 63.1345 24.2009 63.8852 23.4502C64.6463 22.6891 65.5222 22.0948 66.5126 21.6674C67.5031 21.2399 68.5666 21.0261 69.7031 21.0261C70.6102 21.0261 71.4182 21.219 72.1272 21.6048C72.8362 21.9801 73.4304 22.4754 73.9101 23.0905V13.6131ZM69.7656 33.3343C70.4746 33.3343 71.1158 33.1519 71.6893 32.7869C72.2627 32.422 72.7163 31.932 73.0499 31.3168C73.3835 30.6913 73.5504 30.0031 73.5504 29.2524C73.5504 28.4913 73.3835 27.8032 73.0499 27.1881C72.7163 26.5729 72.2627 26.0829 71.6893 25.718C71.1158 25.353 70.4746 25.1706 69.7656 25.1706C69.0566 25.1706 68.4102 25.353 67.8264 25.718C67.2425 26.0829 66.7733 26.5781 66.4188 27.2037C66.0747 27.8188 65.9027 28.5018 65.9027 29.2524C65.9027 30.0031 66.0747 30.6913 66.4188 31.3168C66.7733 31.932 67.2425 32.422 67.8264 32.7869C68.4102 33.1519 69.0566 33.3343 69.7656 33.3343Z" fill="#DB573B"/>
<path d="M91.572 37.4787C90.0915 37.4787 88.6996 37.1868 87.3963 36.6029C86.093 36.0086 84.9461 35.1902 83.9556 34.1476C82.9756 33.1049 82.204 31.9007 81.641 30.5349C81.0884 29.1586 80.8121 27.6885 80.8121 26.1246C80.8121 24.5502 81.0884 23.0801 81.641 21.7143C82.204 20.338 82.9756 19.1338 83.9556 18.1016C84.9461 17.059 86.093 16.2457 87.3963 15.6619C88.6996 15.0676 90.0915 14.7704 91.572 14.7704C93.3445 14.7704 94.9762 15.1822 96.4671 16.0059C97.9581 16.8192 99.1936 17.9087 100.174 19.2745L96.3264 21.3546C95.7425 20.6664 95.0387 20.1191 94.2151 19.7124C93.3914 19.2954 92.5104 19.0869 91.572 19.0869C90.6858 19.0869 89.8517 19.2693 89.0697 19.6342C88.2877 19.9992 87.5996 20.5048 87.0053 21.1513C86.4214 21.7977 85.9627 22.5432 85.6291 23.3877C85.2954 24.2322 85.1286 25.1445 85.1286 26.1246C85.1286 27.0942 85.2954 28.0065 85.6291 28.8615C85.9627 29.706 86.4214 30.4515 87.0053 31.0979C87.5996 31.7339 88.2877 32.2396 89.0697 32.6149C89.8517 32.9798 90.6858 33.1623 91.572 33.1623C92.5208 33.1623 93.4018 32.9538 94.2151 32.5367C95.0387 32.1197 95.7425 31.5671 96.3264 30.8789L100.174 32.9746C99.1936 34.33 97.9581 35.4196 96.4671 36.2432C94.9762 37.0669 93.3445 37.4787 91.572 37.4787Z" fill="#DB573B"/>
<path d="M109.128 37.4787C107.689 37.4787 106.375 37.1086 105.187 36.3683C104.009 35.6281 103.065 34.6376 102.356 33.3969C101.658 32.1457 101.308 30.7642 101.308 29.2524C101.308 28.1056 101.512 27.0369 101.918 26.0464C102.325 25.0455 102.883 24.1697 103.592 23.419C104.311 22.6579 105.145 22.0636 106.094 21.6361C107.043 21.2086 108.054 20.9949 109.128 20.9949C110.567 20.9949 111.875 21.365 113.053 22.1053C114.242 22.8455 115.186 23.8412 115.884 25.0924C116.593 26.3435 116.948 27.7302 116.948 29.2524C116.948 30.3889 116.744 31.4524 116.338 32.4429C115.931 33.4334 115.368 34.3092 114.649 35.0703C113.94 35.821 113.111 36.4101 112.162 36.8375C111.224 37.265 110.212 37.4787 109.128 37.4787ZM109.128 33.1623C109.795 33.1623 110.395 32.985 110.926 32.6305C111.458 32.2656 111.875 31.786 112.178 31.1917C112.48 30.5974 112.631 29.951 112.631 29.2524C112.631 28.533 112.47 27.8762 112.146 27.2819C111.834 26.6772 111.411 26.1976 110.88 25.8431C110.348 25.4886 109.764 25.3113 109.128 25.3113C108.471 25.3113 107.877 25.4938 107.345 25.8587C106.813 26.2236 106.391 26.7032 106.078 27.2975C105.776 27.8918 105.625 28.5435 105.625 29.2524C105.625 29.9927 105.781 30.66 106.094 31.2543C106.417 31.8381 106.845 32.3021 107.376 32.6462C107.908 32.9902 108.492 33.1623 109.128 33.1623Z" fill="#DB573B"/>
<path d="M118.727 37.0721V21.4328H123.044V22.7152C123.492 22.3086 123.951 21.9801 124.42 21.7299C124.9 21.4693 125.416 21.3389 125.968 21.3389C126.959 21.3389 127.887 21.5318 128.752 21.9176C129.628 22.3034 130.394 22.8507 131.051 23.5597C131.718 22.8403 132.485 22.2929 133.35 21.9176C134.226 21.5318 135.159 21.3389 136.15 21.3389C137.505 21.3389 138.73 21.6726 139.825 22.3399C140.92 23.0071 141.785 23.8986 142.421 25.0142C143.067 26.1298 143.391 27.3653 143.391 28.7207V37.0721H139.074V28.7207C139.074 28.1473 138.944 27.6312 138.683 27.1724C138.433 26.7137 138.089 26.3487 137.651 26.0777C137.213 25.7961 136.713 25.6554 136.15 25.6554C135.597 25.6554 135.096 25.7961 134.648 26.0777C134.21 26.3487 133.861 26.7137 133.6 27.1724C133.34 27.6312 133.209 28.1473 133.209 28.7207V37.0721H128.893V28.7207C128.893 28.1473 128.763 27.6312 128.502 27.1724C128.252 26.7137 127.902 26.3487 127.454 26.0777C127.006 25.7961 126.51 25.6554 125.968 25.6554C125.426 25.6554 124.931 25.7961 124.483 26.0777C124.034 26.3592 123.68 26.7345 123.419 27.2037C123.169 27.6624 123.044 28.1785 123.044 28.752V37.0721H118.727Z" fill="#DB573B"/>
<path d="M145.943 37.0721V21.4328H150.26V22.7152C150.708 22.3086 151.167 21.9801 151.636 21.7299C152.116 21.4693 152.632 21.3389 153.184 21.3389C154.175 21.3389 155.103 21.5318 155.968 21.9176C156.844 22.3034 157.61 22.8507 158.267 23.5597C158.934 22.8403 159.701 22.2929 160.566 21.9176C161.442 21.5318 162.375 21.3389 163.366 21.3389C164.721 21.3389 165.946 21.6726 167.041 22.3399C168.136 23.0071 169.001 23.8986 169.637 25.0142C170.283 26.1298 170.607 27.3653 170.607 28.7207V37.0721H166.29V28.7207C166.29 28.1473 166.16 27.6312 165.899 27.1724C165.649 26.7137 165.305 26.3487 164.867 26.0777C164.429 25.7961 163.929 25.6554 163.366 25.6554C162.813 25.6554 162.313 25.7961 161.864 26.0777C161.426 26.3487 161.077 26.7137 160.816 27.1724C160.556 27.6312 160.425 28.1473 160.425 28.7207V37.0721H156.109V28.7207C156.109 28.1473 155.979 27.6312 155.718 27.1724C155.468 26.7137 155.118 26.3487 154.67 26.0777C154.222 25.7961 153.727 25.6554 153.184 25.6554C152.642 25.6554 152.147 25.7961 151.699 26.0777C151.25 26.3592 150.896 26.7345 150.635 27.2037C150.385 27.6624 150.26 28.1785 150.26 28.752V37.0721H145.943Z" fill="#DB573B"/>
<path d="M178.461 37.3536C177.658 37.2911 176.887 37.1242 176.147 36.8532C175.406 36.5717 174.744 36.1963 174.16 35.7271C173.587 35.2475 173.139 34.6741 172.815 34.0068L176.444 32.4429C176.558 32.6097 176.731 32.7921 176.96 32.9902C177.189 33.1779 177.466 33.3447 177.789 33.4907C178.122 33.6367 178.508 33.7097 178.946 33.7097C179.269 33.7097 179.582 33.6732 179.884 33.6002C180.187 33.5168 180.432 33.3864 180.619 33.2092C180.807 33.0215 180.901 32.7765 180.901 32.4741C180.901 32.1405 180.781 31.8851 180.541 31.7078C180.302 31.5306 180.01 31.4002 179.665 31.3168C179.332 31.223 179.009 31.1448 178.696 31.0822C177.737 30.9154 176.83 30.6183 175.975 30.1908C175.13 29.7529 174.442 29.1899 173.91 28.5018C173.378 27.8136 173.113 26.99 173.113 26.0307C173.113 24.9777 173.384 24.0706 173.926 23.3095C174.478 22.538 175.198 21.9437 176.084 21.5266C176.981 21.1096 177.945 20.901 178.977 20.901C180.197 20.901 181.328 21.1565 182.371 21.6674C183.414 22.1782 184.253 22.8977 184.889 23.8256L181.48 25.8431C181.344 25.645 181.167 25.4573 180.948 25.2801C180.739 25.0924 180.494 24.936 180.213 24.8109C179.942 24.6753 179.65 24.5971 179.337 24.5763C178.93 24.545 178.56 24.5711 178.227 24.6545C177.893 24.7275 177.627 24.8682 177.429 25.0767C177.241 25.2853 177.148 25.5668 177.148 25.9213C177.148 26.2653 177.299 26.5208 177.601 26.6876C177.903 26.844 178.253 26.9639 178.649 27.0473C179.045 27.1203 179.394 27.2089 179.697 27.3132C180.604 27.6051 181.454 27.9804 182.246 28.4392C183.049 28.8875 183.695 29.4401 184.185 30.097C184.675 30.7538 184.905 31.5254 184.873 32.4116C184.873 33.4438 184.566 34.3509 183.951 35.1328C183.336 35.9044 182.538 36.4935 181.558 36.9001C180.588 37.2963 179.556 37.4475 178.461 37.3536Z" fill="#DB573B"/>
<path fill-rule="evenodd" clip-rule="evenodd" d="M21.5956 14.4142C17.9014 12.2812 16.6356 7.55749 18.7686 3.86315C20.9014 0.16894 25.6252 -1.09681 29.3195 1.03613C30.8956 1.94604 32.0297 3.32763 32.6464 4.89953C33.334 6.65234 34.1938 8.46923 35.8243 9.41064C37.4548 10.352 39.4583 10.1882 41.3199 9.90734C42.9897 9.65551 44.7532 9.94677 46.3292 10.8568C50.0234 12.9896 51.2893 17.7135 49.1564 21.4077C48.9922 21.6921 48.8126 21.9623 48.6193 22.2174C47.4159 23.8063 46.191 25.5529 46.191 27.5459C46.191 29.5391 47.4159 31.2856 48.6193 32.8745C48.8126 33.1298 48.9922 33.3998 49.1564 33.6842C51.2893 37.3784 50.0234 42.1023 46.3292 44.2351C44.7532 45.1451 42.9897 45.4364 41.3199 45.1846C39.4583 44.9037 37.4548 44.7399 35.8243 45.6813C34.1938 46.6227 33.334 48.4396 32.6464 50.1924C32.0297 51.7643 30.8955 53.1459 29.3195 54.0558C25.6252 56.1887 20.9014 54.923 18.7686 51.2288C16.6356 47.5344 17.9014 42.8107 21.5956 40.6777C23.1716 39.7678 24.9351 39.4764 26.6049 39.7283C28.4666 40.0092 30.47 40.173 32.1005 39.2316C32.5455 38.9747 32.9331 38.6525 33.2754 38.2843C35.1336 36.2858 36.1923 33.6557 37.4642 31.2414C38.1734 29.8951 38.7369 28.5058 38.7437 27.5459C38.7369 26.586 38.1734 25.1968 37.4642 23.8505C36.1922 21.4362 35.1336 18.8061 33.2754 16.8076C32.9331 16.4394 32.5455 16.1173 32.1005 15.8603C30.47 14.9189 28.4666 15.0828 26.6049 15.3636C24.9351 15.6155 23.1716 15.3241 21.5956 14.4142ZM22.2327 5.86315C21.2043 7.64428 21.8146 9.92175 23.5956 10.9501C25.3767 11.9784 27.6542 11.3682 28.6825 9.58703C29.7108 7.80602 29.1006 5.52844 27.3195 4.50024C25.5383 3.47192 23.2609 4.08215 22.2327 5.86315ZM40.6053 20.7707C38.8243 19.7424 38.2141 17.465 39.2424 15.6838C40.2706 13.9028 42.5481 13.2926 44.3292 14.3209C46.1104 15.3491 46.7206 17.6267 45.6923 19.4077C44.6639 21.1888 42.3865 21.7991 40.6053 20.7707ZM39.2424 39.4081C38.2141 37.6269 38.8243 35.3495 40.6053 34.3212C42.3865 33.2928 44.6639 33.9031 45.6923 35.6842C46.7206 37.4653 46.1104 39.7428 44.3292 40.771C42.5481 41.7993 40.2706 41.1891 39.2424 39.4081ZM23.5956 44.1418C21.8146 45.1702 21.2043 47.4476 22.2327 49.2288C23.2609 51.0098 25.5383 51.62 27.3195 50.5917C29.1006 49.5635 29.7108 47.2859 28.6825 45.5049C27.6542 43.7238 25.3767 43.1135 23.5956 44.1418Z" fill="#DB573B"/>
<path fill-rule="evenodd" clip-rule="evenodd" d="M13.8762 22.6C12.7021 24.0719 11.5586 25.725 11.5586 27.6078C11.5586 29.4906 12.7021 31.1437 13.8762 32.6156C14.9292 33.9357 15.5586 35.6085 15.5586 37.4285C15.5586 41.6942 12.1006 45.1522 7.83484 45.1522C3.56909 45.1522 0.110962 41.6942 0.110962 37.4285C0.110962 35.6085 0.740356 33.9357 1.79333 32.6156C2.96753 31.1437 4.11108 29.4906 4.11108 27.6078C4.11108 25.725 2.96753 24.0719 1.79333 22.6001C0.740356 21.2799 0.110962 19.607 0.110962 17.7872C0.110962 13.5215 3.56909 10.0633 7.83484 10.0633C12.1006 10.0633 15.5586 13.5215 15.5586 17.7872C15.5586 19.607 14.9292 21.2799 13.8762 22.6ZM11.5586 17.7872C11.5586 19.8439 9.89148 21.511 7.83484 21.511C5.7782 21.511 4.11096 19.8439 4.11096 17.7872C4.11096 15.7306 5.7782 14.0633 7.83484 14.0633C9.89148 14.0633 11.5586 15.7306 11.5586 17.7872ZM11.5586 37.4285C11.5586 39.4851 9.89148 41.1522 7.83484 41.1522C5.7782 41.1522 4.11096 39.4851 4.11096 37.4285C4.11096 35.3718 5.7782 33.7046 7.83484 33.7046C9.89148 33.7046 11.5586 35.3718 11.5586 37.4285Z" fill="#DB573B"/>
</svg>
