<svg width="189" height="55" viewBox="0 0 189 55" fill="none" xmlns="http://www.w3.org/2000/svg">
<path d="M36.7401 22.227L36.7394 22.226C36.7393 22.2258 36.7392 22.2256 36.7391 22.2255C36.6313 22.0643 36.5233 21.9026 36.4165 21.7412C36.2659 21.5319 36.1275 21.3153 36.0015 21.0926C35.8708 20.8709 35.7519 20.6414 35.6455 20.405C35.5592 20.2321 35.4734 20.058 35.3879 19.8843L35.3873 19.883C34.4679 18.017 33.5813 16.2473 31.9792 15.3221C30.3772 14.3969 28.4018 14.5136 26.3265 14.6502L26.3247 14.6503C25.9676 14.6738 25.6085 14.6975 25.2535 14.7148C23.9438 14.7785 22.601 14.4787 21.3819 13.7747C18.0012 11.8222 16.8429 7.49799 18.7947 4.1163C19.1281 3.53869 19.5311 3.02539 19.9872 2.58128M36.7401 22.227L43.9531 44.2373C44.5338 44.0805 45.1035 43.8464 45.6481 43.5319C49.0288 41.5794 50.1871 37.2552 48.2353 33.8735C48.0793 33.6032 47.908 33.347 47.7232 33.1053C47.632 32.9678 47.54 32.8302 47.4482 32.6928C46.2924 30.9634 45.2036 29.3105 45.2036 27.4599C45.2036 25.6968 46.1934 24.1089 47.2914 22.4617C47.6616 22.0691 47.9922 21.6278 48.2732 21.1408C49.5921 18.8557 49.4905 16.1407 48.2445 14.0188C47.03 11.8798 44.731 10.4353 42.0941 10.4353C41.5321 10.4353 40.9848 10.501 40.4597 10.6253C38.4846 10.7529 36.6151 10.8165 35.0888 9.93502C33.4867 9.00977 32.6001 7.24015 31.6807 5.37408L31.6805 5.37368L31.6801 5.37289L31.679 5.37066C31.6068 5.22404 31.5341 5.07644 31.4614 4.9302C31.3445 4.64904 31.2083 4.37241 31.0522 4.10198C29.1003 0.720215 24.7773 -0.43857 21.3965 1.51398C20.8726 1.81652 20.4017 2.17639 19.9872 2.58128M36.7401 22.227C37.8959 23.9564 38.9847 25.6093 38.9847 27.4599C38.9847 29.3105 37.8959 30.9634 36.7401 32.6928L36.7394 32.6939C36.5404 32.9916 36.3402 33.2912 36.1476 33.5903C35.9296 33.9288 35.7397 34.2872 35.5812 34.6621C35.5043 34.8167 35.4277 34.9721 35.3513 35.1272L35.3506 35.1286L35.3503 35.1292L35.3493 35.1313C34.4299 36.9973 33.5433 38.767 31.9413 39.6922C30.3392 40.6174 28.3639 40.5007 26.2887 40.3641L26.265 40.7242L26.2887 40.3641L26.2868 40.364C25.9985 40.345 25.7085 40.3259 25.4212 40.3102C22.7935 40.1066 20.1558 41.3885 18.7492 43.8256C16.7974 47.2073 17.9557 51.5315 21.3364 53.484C22.2174 53.9927 23.1633 54.2906 24.115 54.3924C24.1151 54.3924 24.1152 54.3924 24.1153 54.3925L24.1615 53.9605L36.7401 22.227ZM19.9872 2.58128C19.9874 2.58113 19.9876 2.58097 19.9877 2.58082L20.2907 2.8921M19.9872 2.58128C19.9872 2.58131 19.9872 2.58134 19.9871 2.58138L20.2907 2.8921M20.2907 2.8921C19.8628 3.30874 19.4843 3.79058 19.171 4.33346C17.3391 7.50745 18.4262 11.566 21.5992 13.3985C22.7438 14.0596 24.0035 14.3406 25.2323 14.2808C25.5836 14.2638 25.9397 14.2403 26.298 14.2167L26.298 14.2167C28.3414 14.0822 30.4596 13.9428 32.1965 14.9459C33.9334 15.949 34.8717 17.8536 35.777 19.691L35.7771 19.6914L35.7773 19.6918L35.7782 19.6935C35.8649 19.8695 35.9513 20.045 36.0382 20.219C36.1394 20.4447 36.2529 20.6638 36.3777 20.8753L20.2907 2.8921ZM13.0471 32.786L13.0469 32.7859C11.8911 31.0564 10.8023 29.4035 10.8023 27.5529C10.8023 25.7023 11.8911 24.0494 13.0469 22.32L13.0476 22.319C13.2466 22.0213 13.4468 21.7216 13.6394 21.4225C14.1413 20.6431 14.4944 19.7582 14.6582 18.8085C14.9345 17.2314 14.6794 15.5511 13.8166 14.0561C11.8647 10.6743 7.5417 9.51555 4.16085 11.4681C2.83933 12.2313 1.85664 13.358 1.26733 14.6488C0.85446 15.5472 0.624454 16.5467 0.624454 17.5988C0.624454 19.0068 1.03634 20.3199 1.74631 21.4225C1.93875 21.7214 2.13876 22.0207 2.33761 22.3182L2.33876 22.3199C3.49462 24.0494 4.58345 25.7023 4.58345 27.5529C4.58345 29.3152 3.59448 30.9025 2.49704 32.5489C2.1262 32.942 1.7951 33.3838 1.51364 33.8715C0.196595 36.1534 0.296135 38.864 1.53715 40.9846C2.75018 43.1287 5.05207 44.5775 7.69287 44.5775C11.5968 44.5775 14.7613 41.4118 14.7613 37.507C14.7613 36.2018 14.4073 34.9779 13.7898 33.9276C13.6619 33.7007 13.521 33.4802 13.3676 33.2673C13.2617 33.1072 13.1546 32.947 13.0478 32.7872L13.0477 32.7869L13.0475 32.7868L13.0471 32.786ZM23.5522 4.71108C25.1355 3.79665 27.1602 4.33925 28.0744 5.92324C28.9887 7.5073 28.4461 9.53277 26.8626 10.4472C25.2793 11.3617 23.2546 10.8191 22.3404 9.23509C21.4261 7.65102 21.9688 5.62555 23.5522 4.71108ZM44.9742 15.9377C45.8884 17.5217 45.3458 19.5472 43.7624 20.4617C42.1791 21.3761 40.1544 20.8335 39.2402 19.2495C38.3259 17.6655 38.8685 15.64 40.4519 14.7255C42.0353 13.8111 44.0599 14.3537 44.9742 15.9377ZM45.1944 35.5852C46.1087 37.1693 45.566 39.1948 43.9826 40.1092C42.3993 41.0237 40.3746 40.4811 39.4604 38.8971C38.5461 37.313 39.0887 35.2875 40.6721 34.3731C42.2555 33.4586 44.2802 34.0012 45.1944 35.5852ZM26.3763 50.2774C24.793 51.1919 22.7683 50.6492 21.8541 49.0653C20.9398 47.4812 21.4824 45.4557 23.0659 44.5413C24.6492 43.6268 26.6739 44.1694 27.5881 45.7534C28.5024 47.3375 27.9597 49.3629 26.3763 50.2774ZM9.47657 40.2629C7.89323 41.1773 5.86856 40.6347 4.95433 39.0507C4.04006 37.4667 4.58269 35.4412 6.16611 34.5267C7.74945 33.6123 9.77412 34.1549 10.6883 35.7389C11.6026 37.3229 11.06 39.3484 9.47657 40.2629ZM4.73412 19.4033C3.81985 17.8192 4.36247 15.7937 5.94589 14.8793C7.52923 13.9648 9.5539 14.5074 10.4681 16.0914C11.3824 17.6755 10.8398 19.701 9.25636 20.6154C7.67302 21.5299 5.64834 20.9873 4.73412 19.4033Z" fill="#DB573B" stroke="#DB573B" stroke-width="0.868852"/>
<path d="M76.0602 11.5738H80.3766V35.0328H76.0602V33.3751C75.5806 33.9798 74.9863 34.475 74.2773 34.8608C73.5683 35.2466 72.7603 35.4395 71.8532 35.4395C70.7167 35.4395 69.6533 35.2257 68.6628 34.7982C67.6723 34.3708 66.7965 33.7817 66.0354 33.031C65.2847 32.2699 64.6956 31.3941 64.2681 30.4036C63.8406 29.4131 63.6269 28.3496 63.6269 27.2132C63.6269 26.0767 63.8406 25.0132 64.2681 24.0227C64.6956 23.0322 65.2847 22.1617 66.0354 21.411C66.7965 20.6499 67.6723 20.0556 68.6628 19.6281C69.6533 19.2006 70.7167 18.9869 71.8532 18.9869C72.7603 18.9869 73.5683 19.1798 74.2773 19.5655C74.9863 19.9409 75.5806 20.4361 76.0602 21.0513V11.5738ZM71.9158 31.295C72.6247 31.295 73.2659 31.1126 73.8394 30.7477C74.4128 30.3827 74.8664 29.8927 75.2 29.2776C75.5337 28.652 75.7005 27.9639 75.7005 27.2132C75.7005 26.452 75.5337 25.7639 75.2 25.1488C74.8664 24.5336 74.4128 24.0436 73.8394 23.6787C73.2659 23.3138 72.6247 23.1313 71.9158 23.1313C71.2068 23.1313 70.5603 23.3138 69.9765 23.6787C69.3926 24.0436 68.9234 24.5388 68.5689 25.1644C68.2249 25.7796 68.0528 26.4625 68.0528 27.2132C68.0528 27.9639 68.2249 28.652 68.5689 29.2776C68.9234 29.8927 69.3926 30.3827 69.9765 30.7477C70.5603 31.1126 71.2068 31.295 71.9158 31.295ZM93.7221 35.4395C92.2416 35.4395 90.8497 35.1475 89.5464 34.5637C88.2431 33.9694 87.0963 33.1509 86.1058 32.1083C85.1257 31.0657 84.3542 29.8614 83.7911 28.4956C83.2386 27.1193 82.9623 25.6492 82.9623 24.0853C82.9623 22.5109 83.2386 21.0408 83.7911 19.675C84.3542 18.2987 85.1257 17.0945 86.1058 16.0623C87.0963 15.0197 88.2431 14.2064 89.5464 13.6226C90.8497 13.0283 92.2416 12.7311 93.7221 12.7311C95.4946 12.7311 97.1263 13.143 98.6172 13.9666C100.108 14.7799 101.344 15.8694 102.324 17.2353L98.4765 19.3153C97.8926 18.6272 97.1889 18.0798 96.3652 17.6732C95.5415 17.2561 94.6605 17.0476 93.7221 17.0476C92.8359 17.0476 92.0018 17.23 91.2198 17.595C90.4379 17.9599 89.7497 18.4656 89.1554 19.112C88.5716 19.7584 88.1128 20.5039 87.7792 21.3484C87.4455 22.1929 87.2787 23.1052 87.2787 24.0853C87.2787 25.0549 87.4455 25.9672 87.7792 26.8222C88.1128 27.6667 88.5716 28.4122 89.1554 29.0586C89.7497 29.6946 90.4379 30.2003 91.2198 30.5756C92.0018 30.9405 92.8359 31.123 93.7221 31.123C94.6709 31.123 95.5519 30.9145 96.3652 30.4974C97.1889 30.0804 97.8926 29.5278 98.4765 28.8397L102.324 30.9353C101.344 32.2907 100.108 33.3803 98.6172 34.204C97.1263 35.0276 95.4946 35.4395 93.7221 35.4395ZM111.278 35.4395C109.839 35.4395 108.526 35.0693 107.337 34.3291C106.159 33.5888 105.215 32.5983 104.506 31.3576C103.808 30.1064 103.458 28.725 103.458 27.2132C103.458 26.0663 103.662 24.9976 104.068 24.0071C104.475 23.0062 105.033 22.1304 105.742 21.3797C106.461 20.6186 107.295 20.0243 108.244 19.5968C109.193 19.1693 110.204 18.9556 111.278 18.9556C112.717 18.9556 114.025 19.3257 115.204 20.066C116.392 20.8062 117.336 21.802 118.034 23.0531C118.743 24.3042 119.098 25.6909 119.098 27.2132C119.098 28.3496 118.894 29.4131 118.488 30.4036C118.081 31.3941 117.518 32.2699 116.799 33.031C116.09 33.7817 115.261 34.3708 114.312 34.7982C113.374 35.2257 112.362 35.4395 111.278 35.4395ZM111.278 31.123C111.945 31.123 112.545 30.9458 113.077 30.5913C113.608 30.2263 114.025 29.7467 114.328 29.1524C114.63 28.5581 114.781 27.9117 114.781 27.2132C114.781 26.4938 114.62 25.8369 114.296 25.2426C113.984 24.6379 113.561 24.1583 113.03 23.8038C112.498 23.4493 111.914 23.272 111.278 23.272C110.621 23.272 110.027 23.4545 109.495 23.8194C108.963 24.1843 108.541 24.664 108.228 25.2582C107.926 25.8525 107.775 26.5042 107.775 27.2132C107.775 27.9534 107.931 28.6207 108.244 29.215C108.567 29.7989 108.995 30.2628 109.526 30.6069C110.058 30.951 110.642 31.123 111.278 31.123ZM120.877 35.0328V19.3935H125.194V20.6759C125.642 20.2693 126.101 19.9409 126.57 19.6906C127.05 19.43 127.566 19.2997 128.118 19.2997C129.109 19.2997 130.037 19.4925 130.902 19.8783C131.778 20.2641 132.544 20.8115 133.201 21.5204C133.868 20.801 134.635 20.2537 135.5 19.8783C136.376 19.4925 137.309 19.2997 138.3 19.2997C139.655 19.2997 140.88 19.6333 141.975 20.3006C143.07 20.9679 143.935 21.8593 144.571 22.9749C145.217 24.0905 145.541 25.326 145.541 26.6814V35.0328H141.224V26.6814C141.224 26.108 141.094 25.5919 140.833 25.1331C140.583 24.6744 140.239 24.3095 139.801 24.0384C139.363 23.7569 138.863 23.6161 138.3 23.6161C137.747 23.6161 137.247 23.7569 136.798 24.0384C136.36 24.3095 136.011 24.6744 135.75 25.1331C135.49 25.5919 135.359 26.108 135.359 26.6814V35.0328H131.043V26.6814C131.043 26.108 130.913 25.5919 130.652 25.1331C130.402 24.6744 130.052 24.3095 129.604 24.0384C129.156 23.7569 128.661 23.6161 128.118 23.6161C127.576 23.6161 127.081 23.7569 126.633 24.0384C126.184 24.3199 125.83 24.6952 125.569 25.1644C125.319 25.6232 125.194 26.1393 125.194 26.7127V35.0328H120.877ZM148.094 35.0328V19.3935H152.41V20.6759C152.858 20.2693 153.317 19.9409 153.786 19.6906C154.266 19.43 154.782 19.2997 155.335 19.2997C156.325 19.2997 157.253 19.4925 158.118 19.8783C158.994 20.2641 159.76 20.8115 160.417 21.5204C161.085 20.801 161.851 20.2537 162.716 19.8783C163.592 19.4925 164.525 19.2997 165.516 19.2997C166.871 19.2997 168.096 19.6333 169.191 20.3006C170.286 20.9679 171.151 21.8593 171.787 22.9749C172.434 24.0905 172.757 25.326 172.757 26.6814V35.0328H168.44V26.6814C168.44 26.108 168.31 25.5919 168.049 25.1331C167.799 24.6744 167.455 24.3095 167.017 24.0384C166.579 23.7569 166.079 23.6161 165.516 23.6161C164.963 23.6161 164.463 23.7569 164.014 24.0384C163.576 24.3095 163.227 24.6744 162.967 25.1331C162.706 25.5919 162.576 26.108 162.576 26.6814V35.0328H158.259V26.6814C158.259 26.108 158.129 25.5919 157.868 25.1331C157.618 24.6744 157.269 24.3095 156.82 24.0384C156.372 23.7569 155.877 23.6161 155.335 23.6161C154.792 23.6161 154.297 23.7569 153.849 24.0384C153.4 24.3199 153.046 24.6952 152.785 25.1644C152.535 25.6232 152.41 26.1393 152.41 26.7127V35.0328H148.094ZM180.611 35.3143C179.809 35.2518 179.037 35.085 178.297 34.8139C177.557 34.5324 176.894 34.157 176.311 33.6879C175.737 33.2082 175.289 32.6348 174.966 31.9675L178.594 30.4036C178.709 30.5704 178.881 30.7529 179.11 30.951C179.339 31.1386 179.616 31.3055 179.939 31.4514C180.273 31.5974 180.658 31.6704 181.096 31.6704C181.419 31.6704 181.732 31.6339 182.035 31.5609C182.337 31.4775 182.582 31.3472 182.77 31.1699C182.957 30.9822 183.051 30.7372 183.051 30.4349C183.051 30.1012 182.931 29.8458 182.691 29.6685C182.452 29.4913 182.16 29.361 181.816 29.2776C181.482 29.1837 181.159 29.1055 180.846 29.043C179.887 28.8761 178.98 28.579 178.125 28.1515C177.28 27.7136 176.592 27.1506 176.06 26.4625C175.529 25.7743 175.263 24.9507 175.263 23.9915C175.263 22.9384 175.534 22.0313 176.076 21.2702C176.629 20.4987 177.348 19.9044 178.234 19.4873C179.131 19.0703 180.095 18.8618 181.127 18.8618C182.347 18.8618 183.479 19.1172 184.521 19.6281C185.564 20.139 186.403 20.8584 187.039 21.7863L183.63 23.8038C183.494 23.6057 183.317 23.418 183.098 23.2408C182.89 23.0531 182.645 22.8967 182.363 22.7716C182.092 22.636 181.8 22.5579 181.487 22.537C181.081 22.5057 180.71 22.5318 180.377 22.6152C180.043 22.6882 179.777 22.8289 179.579 23.0375C179.392 23.246 179.298 23.5275 179.298 23.882C179.298 24.226 179.449 24.4815 179.751 24.6483C180.054 24.8047 180.403 24.9246 180.799 25.008C181.195 25.081 181.545 25.1696 181.847 25.2739C182.754 25.5658 183.604 25.9412 184.396 26.3999C185.199 26.8482 185.845 27.4008 186.335 28.0577C186.825 28.7145 187.055 29.4861 187.024 30.3723C187.024 31.4045 186.716 32.3116 186.101 33.0936C185.486 33.8651 184.688 34.4542 183.708 34.8608C182.738 35.257 181.706 35.4082 180.611 35.3143Z" fill="#DB573B"/>
</svg>
