<svg width="512" height="512" viewBox="0 0 32 32" fill="none" xmlns="http://www.w3.org/2000/svg">
<path fill-rule="evenodd" clip-rule="evenodd" d="M13.9344 8.37244C11.7887 7.13353 11.0534 4.38975 12.2924 2.2439C13.5312 0.0981284 16.275 -0.637078 18.4208 0.601832C19.3363 1.13035 19.995 1.93285 20.3532 2.84588C20.7526 3.86399 21.2521 4.91933 22.1992 5.46615C23.1462 6.01296 24.3099 5.91781 25.3913 5.75466C26.3612 5.60838 27.3855 5.77756 28.3009 6.30615C30.4467 7.54499 31.182 10.2888 29.943 12.4346C29.8477 12.5998 29.7434 12.7567 29.6311 12.9049C28.9321 13.8278 28.2206 14.8423 28.2206 16C28.2206 17.1577 28.9321 18.1722 29.6311 19.0951C29.7434 19.2433 29.8477 19.4002 29.943 19.5654C31.182 21.7112 30.4467 24.455 28.3009 25.6938C27.3855 26.2224 26.3612 26.3916 25.3913 26.2453C24.3099 26.0822 23.1462 25.987 22.1992 26.5339C21.2521 27.0807 20.7526 28.136 20.3532 29.1541C19.995 30.0672 19.3363 30.8696 18.4208 31.3982C16.275 32.6371 13.5312 31.9019 12.2924 29.7561C11.0534 27.6102 11.7887 24.8665 13.9344 23.6276C14.8499 23.099 15.8742 22.9298 16.8441 23.0761C17.9254 23.2392 19.0891 23.3344 20.0362 22.7876C20.2946 22.6383 20.5198 22.4512 20.7186 22.2373C21.7979 21.0765 22.4129 19.5488 23.1517 18.1465C23.5636 17.3645 23.8909 16.5575 23.8948 16C23.8909 15.4424 23.5636 14.6355 23.1517 13.8535C22.4129 12.4512 21.7979 10.9235 20.7186 9.76265C20.5198 9.54877 20.2946 9.36167 20.0362 9.21244C19.0891 8.66563 17.9254 8.76078 16.8441 8.92393C15.8742 9.07021 14.8499 8.90096 13.9344 8.37244ZM14.3045 3.4056C13.7072 4.44016 14.0616 5.76302 15.0961 6.36032C16.1307 6.95762 17.4535 6.60317 18.0508 5.5686C18.6481 4.53411 18.2937 3.21118 17.2591 2.61395C16.2246 2.01666 14.9017 2.37111 14.3045 3.4056ZM24.9762 12.0646C23.9417 11.4673 23.5873 10.1445 24.1846 9.10991C24.7818 8.07542 26.1046 7.72097 27.1392 8.31827C28.1738 8.9155 28.5282 10.2384 27.9309 11.2729C27.3336 12.3075 26.0108 12.6619 24.9762 12.0646ZM24.1846 22.8901C23.5873 21.8555 23.9417 20.5327 24.9762 19.9354C26.0108 19.3381 27.3336 19.6925 27.9309 20.7271C28.5282 21.7616 28.1738 23.0845 27.1392 23.6817C26.1046 24.279 24.7818 23.9246 24.1846 22.8901ZM15.0961 25.6397C14.0616 26.237 13.7072 27.5598 14.3045 28.5944C14.9017 29.6289 16.2246 29.9833 17.2591 29.386C18.2937 28.7888 18.6481 27.4659 18.0508 26.4314C17.4535 25.3968 16.1307 25.0424 15.0961 25.6397Z" fill="#DB573B"/>
<path fill-rule="evenodd" clip-rule="evenodd" d="M9.45066 13.1271C8.7687 13.9821 8.10447 14.9423 8.10447 16.0359C8.10447 17.1295 8.7687 18.0897 9.45066 18.9447C10.0623 19.7114 10.4279 20.6831 10.4279 21.7402C10.4279 24.218 8.41928 26.2266 5.94153 26.2266C3.46379 26.2266 1.45514 24.218 1.45514 21.7402C1.45514 20.6831 1.82072 19.7114 2.43234 18.9447C3.11437 18.0897 3.7786 17.1295 3.7786 16.0359C3.7786 14.9423 3.11437 13.9821 2.43234 13.1272C1.82072 12.3604 1.45514 11.3887 1.45514 10.3317C1.45514 7.85392 3.46379 5.84527 5.94153 5.84527C8.41928 5.84527 10.4279 7.85392 10.4279 10.3317C10.4279 11.3887 10.0623 12.3604 9.45066 13.1271ZM8.10447 10.3317C8.10447 11.5263 7.13613 12.4946 5.94153 12.4946C4.74694 12.4946 3.77853 11.5263 3.77853 10.3317C3.77853 9.13707 4.74694 8.16866 5.94153 8.16866C7.13613 8.16866 8.10447 9.13707 8.10447 10.3317ZM8.10447 21.7402C8.10447 22.9348 7.13613 23.9032 5.94153 23.9032C4.74694 23.9032 3.77853 22.9348 3.77853 21.7402C3.77853 20.5456 4.74694 19.5772 5.94153 19.5772C7.13613 19.5772 8.10447 20.5456 8.10447 21.7402Z" fill="#DB573B"/>
</svg>
